<?xml version="1.0" encoding="UTF-8"?>
<svg xmlns="http://www.w3.org/2000/svg" version="1.1" viewBox="0 0 500 500">
  <!-- Generator: Adobe Illustrator 29.3.1, SVG Export Plug-In . SVG Version: 2.1.0 Build 151)  -->
  <defs>
    <style>
      .st0 {
        fill: #cffffb;
      }

      .st1 {
        fill: #13e0ea;
      }

      .st2 {
        fill: #ffefbb;
      }

      .st3 {
        fill: #f2b02a;
      }

      .st4 {
        fill: #c5c5d8;
      }

      .st5 {
        fill: #d36320;
      }

      .st6 {
        fill: #0c0c3f;
      }

      .st7 {
        fill: #a1a1b7;
      }

      .st8 {
        fill: #139992;
      }

      .st9 {
        fill: #454565;
      }

      .st10 {
        fill: #d4d9e8;
        font-family: TTMamablockB, '210 Mamablock';
        font-size: 48px;
        letter-spacing: .05em;
      }

      .st11 {
        fill: #e59623;
      }

      .st12 {
        fill: #b74c1d;
      }
    </style>
  </defs>
  <g id="OBJECTS">
    <g>
      <path class="st0" d="M323.89,122.92h0l-191.39,95.72,76.55,168.42,11.46,35.53-11.82,15.7c36.9-13.83,70.08-68.01,70.08-68.01h0c5.78-9.07,11.33-19.04,16.63-29.88,13-26.63,24.6-58.69,34.48-95.31,16.72-62.01,22.66-115,22.9-117.22l2.26-20.53c1.53-13.94,1.68-22.79,1.68-22.79l-32.83,38.37ZM248.95,379.35l-58.57-159.4,136.2-73.49c-7.89,51.46-19.63,175.03-77.63,232.89Z"/>
      <path class="st1" d="M382.74,286.06l-1.01-4.54c-2.97-13.35-6.85-25.31-11.56-35.58l14.41,1.54-10.38-15.1c-4.39-6.38-9.69-12.99-15.77-19.66l8.47-.4-10.43-12.93c-7.18-8.9-15.01-16.4-23.32-22.34l6.35-1.68-11.32-10.41c-4.3-3.95-9.17-7.5-14.49-10.55l5.97-5.13-9.63-17.07-21.41,9.5-4.19-1.82c-.29-.13-1.44-.61-3.39-1.22l8.64,2.33,2.61-1.04c14.39-5.75,23.15-17.23,25.34-33.2.54-3.95.66-8.13.34-12.44-1.04-11.4-6.41-20.81-6.64-21.2l-6.61-11.42s8.16,27.28-41.65,49.45c4.53-26.61-18.75-43.8-18.75-43.8l1.36,9.88c.43,3.13-.63,7.05-3.1,11.39l-.15.3c-.84,1.9-2.57,4.25-5.14,6.98l-.17.18c-1.12,1.18-2.39,2.41-3.77,3.67-6.87,6.26-16.13,12.94-25.09,19.39l-1.65,1.19c-19.03,13.73-30.84,24.88-31.33,25.35l-1.83,1.73-.79,5.71-19.28,13.86-12,17.7-14.52,3.59-14.12,32.96.17.31-18.5,14.64-7.85,25.55.42,1.19c7.82,22.16,26.42,25.61,34.66,26.01l2.6,3.01,1.25.55c.43.19,4.33,1.83,9.86,2.45,2.2.44,4.37.67,6.43.67h0c19.34,0,26.11-19.25,26.17-19.44l1.05-3.1-4.86-2.56.99-1.02c2.71-.52,5.43-1.34,8.15-2.46l12.03,6.73c1.22.68,2.58,1.26,4.03,1.72-7.89,2.8-15,6.73-21.2,11.73l-16.64,14.02,2.94.17c-4.85,3.76-9.08,7.93-12.61,12.42l-10.42,13.27,11.66.25c-.25.38-.49.77-.74,1.15l-66.58,12.93,49.14,7.58-3.69,22.75c-.89,5.51.72,10.65,4.44,14.29l-21.38,8.15,31.2-3.67c.58.06,1.13.09,1.67.09.43,0,.88,0,8.93-1.33l98.14-11.54-24.94,24.85,168.17-55.95,7.11-43.86,29.77-23.97-41.54,7.28Z"/>
      <path class="st6" d="M201.45,272.32s5.83,5.26,16.32,3.51c10.5-1.75,17.78,6.54,11.9,11.29s-12.81,16.45,8.79,16.26c21.6-.19,31.61-2.88,24.12-20.98-7.49-18.11-9.81-27.34-16.02-31.32-6.2-3.98-19.7-5.86-24.49-3.8-4.79,2.07-20.63,25.04-20.63,25.04Z"/>
      <g>
        <path class="st5" d="M176.48,256.26s10.34-9.29,19.3-3.77c8.96,5.52-6.37,13.9-6.37,13.9,0,0,12.37,6.92,21.44-6.25,0,0-.47,5.49-4.95,9.11,0,0,6.9,3,13.71-4.28s18.08-9.1,27.45,2.53c0,0-2.58-21.57-27.87-27.52-25.29-5.95-38.77,4.13-42.7,16.29Z"/>
        <path class="st6" d="M251.61,266.95c-.12-1.01-3.29-24.84-31.38-31.44-12.73-2.99-23.62-2.43-32.36,1.67-7.63,3.58-13.23,9.86-15.76,17.67,0,0,18.7-5.44,21.78,1.92-.66,1.36-3.76,3.98-6.69,5.6l-7.28,3.98,7.24,4.05c3.11,1.74,8.53,3.26,14.29,1.93l2.6,1.13c3.66,1.6,11.77,2.26,18.9-5.35,2.76-2.94,6.14-4.49,9.52-4.37,3.81.14,7.62,2.44,11.01,6.64l10.03,12.43-1.9-15.86ZM219.6,264.97c-6.82,7.28-13.71,4.28-13.71,4.28,4.48-3.61,4.95-9.11,4.95-9.11-9.07,13.17-21.44,6.25-21.44,6.25,0,0,15.33-8.37,6.37-13.9-8.96-5.52-19.3,3.77-19.3,3.77,3.94-12.16,17.42-22.23,42.7-16.29,25.29,5.95,27.87,27.52,27.87,27.52-9.37-11.62-20.63-9.81-27.45-2.53Z"/>
        <path class="st12" d="M247.05,267.5s-2.58-21.57-27.87-27.52c-25.29-5.95-38.77,4.13-42.7,16.29,0,0,10.34-9.29,19.3-3.77,1.53.95,2.35,1.98,2.66,3.03,6.21.27,16.82,1.37,26.34,5.47,6.59-3.44,15-2.52,22.28,6.5Z"/>
      </g>
      <g>
        <path class="st5" d="M232.33,279.52s-34.31-5.62-58.86,14.19l14.17.19s-24.38,6.23-39.22,25.11l12.49.27s-14.49,11.62-19.94,33.56l86.72-30.06,4.63-43.27Z"/>
        <path class="st12" d="M187.34,293.89h.3s-.17.05-.48.14c-11.66,8.47-24.08,21.31-32.21,40.45v13.52l72.76-25.22,4.63-43.27s-1.82-.3-4.93-.51h-9.48s-14.55,3.31-30.58,14.89Z"/>
        <path class="st6" d="M233.07,274.99c-1.48-.24-36.63-5.71-62.49,15.15l-9.26,7.8,4.71.26c-7.15,4.15-14.95,9.99-21.22,17.98l-5.68,7.23,11.29.24c-4.84,6.03-10.76,15.45-13.9,28.09l-2.04,8.21,97.47-33.78,5.4-50.47-4.28-.7ZM227.7,322.78l-86.72,30.06c5.45-21.94,19.94-33.56,19.94-33.56l-12.49-.27c14.84-18.89,39.22-25.11,39.22-25.11l-14.17-.19c24.56-19.81,58.86-14.19,58.86-14.19l-4.63,43.27Z"/>
      </g>
      <g>
        <path class="st5" d="M364.77,296.19c1.67-7.76.78-13.69.78-13.69l7.96.85c-7.42-33.39-18.68-47.52-18.68-47.52l12.43,1.33c-12.06-17.55-28.2-31.96-28.2-31.96l10.86-.51c-20.43-25.33-39.77-30.24-39.77-30.24l12.33-3.27c-18.95-17.42-43.47-19.79-43.47-19.79,0,0,21.97,113.11,44.53,156.91l41.23-12.11Z"/>
        <path class="st12" d="M279,151.39s21.36,110.01,43.59,155.05l36.03-33.85c-6.72-53.72-45.17-87.87-45.17-87.87,20.31,4.66,36.46,19.96,36.46,19.96-20.43-25.33-39.77-30.24-39.77-30.24l12.33-3.27c-18.95-17.42-43.47-19.79-43.47-19.79Z"/>
        <path class="st6" d="M377.99,282.36c-4.43-19.92-10.21-33.23-14.34-40.97l13.04,1.4-5.65-8.22c-7.01-10.2-15.25-19.27-21.15-25.27l9.28-.43-5.68-7.04c-11.03-13.67-21.8-21.67-29.7-26.23l7.96-2.11-6.17-5.67c-19.86-18.25-45.07-20.87-46.14-20.98l-6.12-.59,1.17,6.03c.08.4,7.95,40.74,18.92,82.11,6.47,24.38,12.75,44.37,18.66,59.42,2.39,6.09,4.7,11.35,6.97,15.82l50.67-14.88c.44-2.68.61-5.11.65-7.11l9.01.96-1.39-6.24ZM365.55,282.5s.49,3.3.05,8.2l-44.13,13.41c-21.82-46.39-42.47-152.72-42.47-152.72,0,0,24.52,2.37,43.47,19.79l-12.33,3.27s19.34,4.92,39.77,30.24l-10.86.51s16.13,14.41,28.2,31.96l-12.43-1.33s11.25,14.13,18.68,47.52l-7.96-.85Z"/>
      </g>
      <g>
        <path class="st7" d="M305.44,339.16c17.43-13.92,36.13-29.12,48.6-33.54,0,0,.98-88.05-60.43-119.77-61.41-31.72-88.6-27.24-88.6-27.24l-21.92,91.94s18-5.29,46.07,4.2c28.07,9.49,25.84,38.23,18.95,43.79-6.89,5.56-20.06-8.35-10.16-16.33,9.9-7.99-28.02-1.23-54.46,22.89-23.08,21.06-30.52,51.78-29.07,78.42l151.03-44.35Z"/>
        <g>
          <path class="st4" d="M352.44,306.24c-.95-12.26-2.02-25.9-3.01-38.48-3.85-17.16-10.93-37.41-23.91-54.64l-31.54-17.2-22.21,42.31,7.67,16.13s-13.28,8.94-26.61,10.21c0,0,16.11,1.61,28.52-2.8,0,0,2.39,14.8,2.39,21.05,0,0-16.02,3.12-25.1,1.85,0,0,12.69,4.17,25.1,2.87,0,0-2.78,22.03-18.7,29.52l-18.04-13.12,27.89,44.2,30.55-8.97c16.7-13.34,34.57-27.84,47-32.92Z"/>
          <path class="st4" d="M165.07,329.48c28.06-23.87,55.67-23.03,55.67-23.03-25.78-5.91-47.19,13.19-47.19,13.19,23.27-28.2,56.12-32.51,56.12-32.51-2.04,18.76,17.34,16.81,17.34,16.81l.11-4.77c-7.07,3.64-18.61-9.35-9.17-16.97,9.9-7.99-28.02-1.23-54.46,22.89-7.87,7.18-13.92,15.49-18.43,24.38h0Z"/>
        </g>
        <g>
          <path class="st9" d="M215.69,309.62l5.04-3.17c-25.35-4.16-55.67,23.03-55.67,23.03,0,0-.06.11-.16.3-8.57,17.09-11.43,36.28-10.49,53.73l125.02-36.71-21.01-30.14c-27.71,16.93-42.73-7.04-42.73-7.04Z"/>
          <path class="st9" d="M293.61,185.85c-61.41-31.72-88.6-27.24-88.6-27.24l-21.92,91.94s18-5.29,46.07,4.2c28.07,9.49,25.84,38.23,18.95,43.79-5.7,4.6-15.7-4.12-13.38-11.79h0c-4.43,7.31,9.32,24.62,20.7,10.37,11.39-14.25-8.99-43.7-8.99-43.7,21.27-4.87,33.48-16.02,33.48-16.02l30.58-40.22c-5.03-4.25-10.64-8.08-16.9-11.32Z"/>
        </g>
        <path class="st6" d="M154.42,383.51c-1.45-26.63,5.99-57.36,29.07-78.42,26.44-24.12,64.37-30.88,54.46-22.89-9.9,7.99,3.27,21.89,10.16,16.33,6.89-5.56,9.12-34.3-18.95-43.79-28.07-9.49-46.07-4.2-46.07-4.2l21.92-91.94s27.19-4.48,88.6,27.24c61.41,31.72,60.43,119.77,60.43,119.77-12.47,4.43-31.17,19.62-48.6,33.54l11.65-3.42c14.06-11.16,28.8-22.36,38.49-25.8l3.02-1.07.04-3.2c.01-.93.17-22.98-7.36-49.3-4.45-15.54-10.67-29.33-18.5-40.98-9.88-14.71-22.35-26.02-37.05-33.62-62.05-32.05-90.28-27.89-91.45-27.7l-3.01.5-22.63,94.91-1.8,7.62,7.54-2.14c.17-.05,17.18-4.7,43.33,4.13,14.85,5.02,18.81,15.54,19.85,21.36,1.31,7.36-.78,13.26-2.31,14.5-.16.13-.63.51-1.88.02-2.09-.81-3.98-3.11-4.32-5.25-.15-.96-.13-2.41,1.8-3.96,2.56-2.06,3.65-4.29,3.24-6.62-.35-1.97-1.78-3.56-3.84-4.26-6.34-2.15-21.75,3.84-24.77,5.07-13.02,5.27-25.47,12.99-35.06,21.74-12.96,11.82-22,27.07-26.88,45.32-3.23,12.09-4.44,24.98-3.62,37.81l4.52-1.33Z"/>
        <g>
          <path class="st6" d="M335.47,228.89c-.81-1.54-1.66-3.07-2.54-4.58-42.82,34.97-67.97,41.32-81.78,40.16-3.86-.32-6.71-1.23-8.73-2.2,2.41,2.17,4.32,4.56,5.8,7.04.53.08,1.08.16,1.65.22.12.01.24.03.36.04,14.68,1.42,41.1-4.83,85.24-40.67Z"/>
          <path class="st6" d="M347.45,259.77c-49.2,26.98-75.36,28.62-88.81,24.9-2.57-.71-4.62-1.61-6.24-2.53.19,2.01.19,3.96.01,5.77,1.3.58,2.76,1.13,4.38,1.6,2.19.64,4.68,1.14,7.52,1.45,15.64,1.67,41.76-2.82,84.45-26.03-.41-1.69-.85-3.41-1.32-5.16Z"/>
          <path class="st6" d="M249.18,297.43c-.34.43-.69.8-1.06,1.1-1.06.85-2.26,1.24-3.51,1.27.68,1.33,1.47,2.7,2.4,4.13,6.87,10.51,21.01,23.69,49.28,37.91l7.29-2.14c-34.63-16.53-48.87-31.45-54.41-42.28Z"/>
        </g>
      </g>
      <g>
        <path class="st7" d="M128.82,284.75s12.89,5.6,24.31-2.01c0,0-3.5.61-8.13-2.93,0,0,8.14.53,12.71-3.16l-5.86-3.08-.14-2.37,7.4-7.65-12.97-1.78-10.46,5.07-1.33,4.18,1.8,4.32s-8.33,5.39-17.41,2.16l10.08,7.27Z"/>
        <path class="st6" d="M168.7,260.23l-23.31-3.2-13.48,6.53-2.44,7.66.74,1.79c-4.71,3.8-16.41,1.01-16.41,1.01l12.73,14.75.45.2c.3.13,3.84,1.63,8.92,2.17,21.42,4.43,28.38-16.21,28.38-16.21l-6.5-3.42,10.91-11.28ZM157.71,276.65c-4.57,3.68-12.71,3.16-12.71,3.16,4.63,3.54,8.13,2.93,8.13,2.93-11.42,7.61-24.31,2.01-24.31,2.01l-10.08-7.27c9.08,3.23,17.41-2.16,17.41-2.16l-1.8-4.32,1.33-4.18,10.46-5.07,12.97,1.78-7.4,7.65.14,2.37,5.86,3.08Z"/>
        <g>
          <path class="st4" d="M153.13,282.74c-9.61,5.43-21.03,1.09-21.03,1.09l-2.39-2.02c8.5-1,10.33-6.03,10.33-6.03l-4.26-.23c-1.7.98-9.09,4.77-17.05,1.94l10.08,7.27s12.89,5.6,24.31-2.01Z"/>
          <path class="st4" d="M155.23,275.34c-4.2,3.63-10.23,4.46-10.23,4.46,0,0,8.14.53,12.71-3.16l-2.48-1.31Z"/>
        </g>
        <path class="st9" d="M136.93,270.35l11.76-3.89s2.47,2.33,7.76-.15l-8.03-2.82-10.56,4.08-.93,2.79Z"/>
      </g>
      <g>
        <path class="st11" d="M283.4,234.48c33.6,49.4-11.18,104.41-11.18,104.41l-52.91,25.56,86.13-25.29c17.43-13.92,36.13-29.12,48.6-33.54,0,0,.98-88.05-60.43-119.77-61.41-31.72-88.6-27.24-88.6-27.24l-8.01,33.6c23.01,1.17,63.33,8.36,86.4,42.27Z"/>
        <path class="st2" d="M310.68,197.31s32.68,30.19,33.59,74.86c.28,13.66,4.03,19.44,9.13,20.87-1.99-22.06-10.07-68-42.72-95.73Z"/>
        <g>
          <path class="st5" d="M294.06,236.75l11.09-7.36-19.74-5.45c19.76-9.59,25.2-26.41,25.27-26.63-5.08-4.31-10.73-8.19-17.07-11.46-61.41-31.72-88.6-27.24-88.6-27.24l-8.01,33.6c23.01,1.17,63.33,8.36,86.4,42.27,28.58,42.03.45,88.11-8.59,100.93,23.72.47,44.22-3.82,44.97-19.71,1.78-38.1-25.72-78.95-25.72-78.95Z"/>
          <polygon class="st5" points="298.08 238.22 312.19 263.48 306.08 231.47 298.08 238.22"/>
        </g>
        <path class="st6" d="M279.6,237.06c13.02,19.15,15.23,41.48,6.56,66.38-5.72,16.42-14.55,28.68-16.91,31.79l-76.83,37.12,26.89-7.89,52.91-25.56s44.77-55.01,11.18-104.41c-23.07-33.92-63.39-41.1-86.4-42.27l8.01-33.6s27.19-4.48,88.6,27.24c61.41,31.72,60.43,119.77,60.43,119.77-12.47,4.43-31.17,19.62-48.6,33.54l11.65-3.42c14.06-11.16,28.8-22.36,38.49-25.8l3.02-1.07.04-3.2c.01-.93.17-22.98-7.36-49.3-4.45-15.54-10.67-29.33-18.5-40.98-9.88-14.71-22.35-26.02-37.05-33.61-62.05-32.05-90.28-27.89-91.45-27.7l-3.01.5-10,41.93,5.51.28c21.45,1.09,60.74,7.78,82.83,40.27Z"/>
      </g>
      <polygon class="st6" points="149.9 384.83 317.09 335.74 313.27 332.92 154.24 379.63 149.9 384.83"/>
      <g>
        <path class="st11" d="M198.72,242.62s52.47,6.97,80.94-10.38l-20.5-6.65s30.98-5.95,46.92-29.68l-17.32,2.24s15.52-17.9,10.1-37.68l-18.8-.73,11.82-3.08s-5.61-5.39-19.54-5.99l8.72-3.04s-19.33-8.4-48.83.08c-29.5,8.48-33.51,94.91-33.51,94.91Z"/>
        <path class="st5" d="M214.34,243.82s21.27-.61,21.27-17.07l7.89-6.7,3.55,4.92,48.93-38.55c.53-1.17,1.04-2.4,1.5-3.69l-3.15-10.62,4.87-10.26c-.1-.46-.21-.92-.33-1.38l-18.8-.73,11.82-3.08s-5.61-5.39-19.54-5.99l8.72-3.04s-19.33-8.4-48.83.08c-29.5,8.48-33.51,94.91-33.51,94.91,0,0,6.26.83,15.62,1.2Z"/>
        <g>
          <path class="st6" d="M306.36,191.25l-5.97-3.41c3.37-7.61,5.86-17.77,2.9-28.58l-.89-3.24-4.76-.19-2.58-2.48c-.35-.34-2.21-2.02-5.92-3.69l4.52-1.58-10.76-4.68c-.85-.37-21.2-8.95-51.92-.12-14,4.03-24.44,22.23-31.04,54.12-4.71,22.76-5.74,44.1-5.79,44.99l-.2,4.21,4.18.55c.25.03,1.11.14,2.49.29,11.04,1.18,55.21,4.69,81.45-11.3l8.53-5.2-16.29-5.29c10.96-4.39,25.81-12.63,35.6-27.2l5.65-8.41-9.18,1.18ZM259.16,225.59l20.5,6.65c-28.48,17.35-80.94,10.38-80.94,10.38,0,0,4.02-86.43,33.51-94.91,29.5-8.48,48.83-.08,48.83-.08l-8.72,3.04c13.93.61,19.54,5.99,19.54,5.99l-11.82,3.08,18.8.73c5.42,19.77-10.1,37.68-10.1,37.68l17.32-2.24c-15.94,23.73-46.92,29.68-46.92,29.68Z"/>
          <polygon class="st6" points="252.34 230.66 267.78 230.9 258.72 226.43 252.34 230.66"/>
        </g>
        <path class="st2" d="M259.16,225.59l14.17,6.79c-16.74,10.98-58.99,11.45-58.99,11.45h0c17.75.71,46.68-.23,65.32-11.58l-20.5-6.65s30.98-5.95,46.92-29.68c-14.89,19.41-46.92,29.68-46.92,29.68Z"/>
      </g>
      <g>
        <path class="st6" d="M308.39,137.14l-63.74,28.26-8.17,19.33,6.91,7.71,20.51-9.12,6.16,3.59,44.7-38.47-6.37-11.3ZM269.55,181.3l-5.36-3.13-19.61,8.72-2.74-3.06,6.33-14.98,58.27-25.84,2.48,4.39-39.37,33.88Z"/>
        <polygon class="st7" points="248.17 168.86 306.44 143.02 308.92 147.41 269.55 181.3 264.19 178.17 244.58 186.89 241.84 183.84 248.17 168.86"/>
        <polygon class="st9" points="248.17 168.86 246.33 180.78 273.15 168.72 269.35 175.78 308.92 147.41 269.55 181.3 264.19 178.17 244.58 186.89 241.84 183.84 248.17 168.86"/>
        <polygon class="st4" points="308.92 147.41 305.93 145.42 249.94 170.21 246.45 179.99 248.17 168.86 306.44 143.02 308.92 147.41"/>
      </g>
      <g>
        <polygon class="st7" points="247.65 190.32 289.12 180.05 291.68 183.67 251.31 212.27 247.56 206.93 230.15 209.68 236.24 200.23 240.88 200.24 247.65 190.32"/>
        <path class="st6" d="M291.06,174.85l-46.21,11.44-6.39,9.36h-4.71s-13.01,20.17-13.01,20.17l24.71-3.9,4.75,6.77,47.88-33.92-7.02-9.91ZM247.56,206.93l-17.41,2.75,6.09-9.45h4.63s6.78-9.91,6.78-9.91l41.47-10.27,2.56,3.61-40.37,28.6-3.75-5.34Z"/>
        <polygon class="st9" points="247.65 190.32 242.47 203.14 259.46 199.38 254.18 205.67 291.68 183.67 251.31 212.27 247.56 206.93 230.15 209.68 236.24 200.23 240.88 200.24 247.65 190.32"/>
        <polygon class="st4" points="291.68 183.67 288.44 181.85 250.55 191.64 242.47 203.14 247.65 190.32 289.12 180.05 291.68 183.67"/>
      </g>
      <g>
        <path class="st6" d="M249.47,76.71c.66,4.78-1.26,9.75-3.54,13.76-.89,2.01-2.65,4.67-5.91,8.11-.09.09-.14.15-.14.15h0c-1.14,1.19-2.45,2.47-3.97,3.86-7.03,6.41-16.38,13.15-25.43,19.67l-1.65,1.19c-18.76,13.53-30.45,24.56-30.94,25.02l-.85.81-1.08,7.78,21.66-2.68,9.86,3.49,2.03-1.8c.24-.22,24.04-21.37,30.97-27.01l6.29,1.08,1.34-.66c24.59-14.65,1.35-52.77,1.35-52.77ZM246.22,119.77c-.24-.25-.52-.48-.81-.68-3.91-2.64-8.32.93-10.45,2.64-5.7,4.59-23.45,20.3-29.52,25.68l-6.79-2.41-3.25.4c4.93-4.07,11.31-9.11,18.8-14.51l1.65-1.19c13.57-9.78,26.63-19.2,33.98-28.38.89,6.72.71,14.46-3.61,18.44Z"/>
        <path class="st7" d="M181.05,151.8s11.74-11.12,30.46-24.63c18.73-13.51,39.54-28.17,39.8-39.73,0,0,10.73,30.02-5.24,37.93l-3.01-.52s1.53-5.01-5.23.44c-6.76,5.45-31.38,27.34-31.38,27.34l-8.32-2.95-17.08,2.11Z"/>
        <path class="st4" d="M197.51,145.16s32.24-23.21,42.37-33.91c10.13-10.7,12.39-18.56,11.44-23.81-.26,11.56-21.07,26.22-39.8,39.73-18.73,13.51-30.46,24.63-30.46,24.63l17.08-2.11,9.67-9.61-10.29,5.08Z"/>
        <path class="st9" d="M246.1,121.54l.83-3.15-4.22-.94-40.17,33.8,3.93,1.39s24.62-21.89,31.38-27.34c6.76-5.45,5.23-.45,5.23-.45l3.01.52c15.97-7.91,5.24-37.93,5.24-37.93,5.39,27.58-5.22,34.1-5.22,34.1Z"/>
      </g>
      <g>
        <path class="st6" d="M314.14,94.67c-.97-10.7-6.14-19.63-6.14-19.63-.28,6.77-4.58,13.51-4.58,13.51-1.09,2.33-4.39,6.26-13.65,12.21-9,5.79-20.94,11.79-32.49,17.6-8.99,4.52-17.48,8.8-24.78,13.01-10.06,5.81-27.25,15.89-29.35,18.07l-4.93,5.13,16.8,5.95,7.82,17.74,4.7-6.36c4.53-6.13,16.73-17.32,49.15-35.79,1.26-.72,2.33-1.28,3.22-1.72l9.52,2.57,1.42-.57c13.03-5.21,20.97-15.64,22.96-30.16.59-4.27.56-8.28.33-11.57ZM289.15,132.14l-3.63-.98s3.12-7.13-11.1.97c-14.22,8.1-40.96,24.04-50.57,37.05l-5.43-12.31-11.95-4.23s1.96-2.04,28.34-17.28c26.38-15.24,72.06-32.94,73.66-47.89,0,0,8.59,33.52-19.31,44.67Z"/>
        <path class="st7" d="M206.46,152.64s1.96-2.04,28.34-17.28c26.38-15.24,72.06-32.94,73.66-47.89,0,0,8.59,33.52-19.31,44.67l-3.63-.98s3.12-7.13-11.1.97c-14.22,8.1-40.96,24.04-50.57,37.05l-5.43-12.31-11.95-4.23Z"/>
        <path class="st9" d="M285.52,131.16l3.63.98c27.9-11.15,19.31-44.67,19.31-44.67,2.9,32.52-18.26,40.81-18.26,40.81l1.37-4.57-5.67-1.79-53.7,29.45,5.97-7.61-19.75,13.1,5.43,12.31c9.61-13.02,36.35-28.95,50.57-37.05,14.22-8.1,11.1-.97,11.1-.97Z"/>
        <path class="st4" d="M308.15,88.99c-4.35,14.62-47.86,31.64-73.35,46.37-26.38,15.24-28.34,17.28-28.34,17.28l4.54,1.61,16.09-9.08-6.27.9s55.45-27.97,68.09-36.04c11.88-7.58,17.39-13.34,19.23-21.03Z"/>
      </g>
      <g>
        <path class="st3" d="M128.3,224.9s-22.58,20.09-22.14,19.74c.44-.35,1.36-8.12,1.36-8.12l-5.79,4.58-5.46,19.84s5.72,16.32,19.89,17.84l-2.93-2.87,2.86-3.77s13.21,6.42,18.04,2.52l-2.19-3.82,2.31-6.92,27.59-9.12s2.18,3.92-1.19,6.11c0,0,9.27,1.04,14.31-9.42l-.63,5.92s4.29-1.51,13.5-10.53c9.21-9.03,30.62-.75,38.11-19.39,0,0-9.52,2.71-14.9-.22,0,0,14.61,1.07,24.6-12.39l-10.58-1.13-1.18-2.78,9.89-15.34h4.71s3.38-4.93,3.38-4.93l-5.35-5.97,8.02-18.98-4.19-1.23-18.91,11.53-13.85,17.47,12.59-21.33-5.14-11.65-15.89-5.63-23.81,20.62,12.9-19.63-5.54.39-23.19,16.67-19.24,28.38-6.41.3,1.31-6.73-2.22.55-10.86,25.35,1.64,3.02,4.6,1.08Z"/>
        <path class="st11" d="M244.5,165.75l-4.19-1.23-18.91,11.53-13.85,17.47-5.64,12.36,8.35-6.47-19.04,26.54,7.71,3.62-10.27.96-24.93,10.15,2.11-3.31c-9.11,2.56-29.74,18.67-29.74,18.67l.14-3.63-7.8,16.45c-7.72-2.16-12.74-5.93-12.74-5.93l-5.31,9.11c-7.12-2.72-13.33-11.26-13.33-11.26l4.66-19.68-5.46,19.84s5.72,16.32,19.89,17.84l-2.93-2.87,2.86-3.77s13.21,6.42,18.04,2.52l-2.19-3.82,2.31-6.92,27.59-9.12s2.18,3.92-1.19,6.11c0,0,9.27,1.04,14.31-9.42l-.63,5.92s4.29-1.51,13.5-10.53c9.21-9.03,30.62-.75,38.11-19.39,0,0-9.52,2.71-14.9-.22,0,0,14.61,1.07,24.6-12.39l-10.58-1.13-1.18-2.78,9.89-15.34h4.71s3.38-4.93,3.38-4.93l-5.35-5.97,8.02-18.98ZM205.96,218.99l-3.43,5.51-6.36.64,16.04-21.85-9.15,15.76,2.9-.07Z"/>
        <g>
          <path class="st2" d="M131.34,223.95l1.2,1.9-4.24-.95s-21.65,19.26-22.14,19.73c.44-.41,1.35-8.11,1.35-8.11l-5.79,4.58-5.46,19.84s1.94,5.52,6.34,10.44c-4.01-4.99-5.54-10.6-5.54-10.6l3.2-7.46,3.51,3.03-1.1-2.99,3.48,1.43,3.63-.67,5.36-1.27,2.23,3.92,3.13-12.23-2.96,1.32,9.79-10.55-5.98,2.89,18.57-17.75-8.57,3.5Z"/>
          <polygon class="st2" points="159.49 172.95 140.25 201.33 133.83 201.63 135.14 194.9 132.92 195.44 124.28 215.61 123.29 220.07 139.15 218.01 132.61 217.6 161.86 183.76 153.18 191.97 161.85 176.99 179.47 166.65 175.31 175.53 188.22 155.9 182.68 156.29 159.49 172.95"/>
          <polygon class="st2" points="192.39 179.32 189.26 186.55 189.21 193.42 190.47 187.63 204.91 167.16 192.39 179.32"/>
          <polygon class="st2" points="144.27 235.05 161.65 224.28 166.22 224.38 165.6 226.99 171.04 220.05 161.37 222.15 144.27 235.05"/>
        </g>
        <g>
          <path class="st5" d="M116.03,269.37l-4.55,6.07c-8.79-3.15-14.41-14.65-14.41-14.65l1.01-6.43h0s-1.81,6.59-1.81,6.59c0,0,5.72,16.32,19.89,17.84l-2.93-2.87,2.86-3.77s13.21,6.42,18.04,2.52c-8.67,2.14-18.09-5.3-18.09-5.3Z"/>
          <polygon class="st5" points="131.34 223.95 139.92 220.45 147.67 222.79 143.86 235.69 154.67 218.86 140.94 217.81 139.15 218.01 124.65 222.25 132.54 225.84 131.34 223.95"/>
          <polygon class="st5" points="171.04 220.05 176.96 222.54 189.21 193.42 159.74 220.14 143.86 235.69 161.37 222.15 171.04 220.05"/>
          <path class="st5" d="M205.19,226.65c5.97,5.65,14.74,4.52,14.74,4.52-6.61,5.33-19.15,5.51-24.83,7.26-5.69,1.75-16.35,12.39-16.35,12.39,3.8-4.31,3.45-11.12,3.45-11.12l-18.25,9.93,3.4.36-33.11,13.93,27.59-9.12s2.18,3.92-1.19,6.11c0,0,9.27,1.04,14.31-9.42l-.63,5.92s4.29-1.51,13.5-10.53c9.21-9.03,30.62-.75,38.11-19.39,0,0-9.52,2.71-14.9-.22,0,0,14.61,1.07,24.6-12.39-9.09,10.61-30.42,11.77-30.42,11.77Z"/>
          <polygon class="st5" points="238.46 195.64 241.83 190.7 237.34 194.15 226.86 193.03 229.75 194.42 220.71 210.05 223.48 214.47 235.61 214.88 225.03 213.75 223.86 210.97 233.75 195.63 238.46 195.64"/>
          <polygon class="st5" points="168.06 224.97 176.27 223.45 170.83 221.1 168.06 224.97"/>
          <path class="st5" d="M208.9,219.09l-3.5,5.2c13.4.04,20.6-6.71,20.6-6.71l-17.1,1.51Z"/>
          <polygon class="st5" points="221.41 176.05 240.03 167.68 236.48 184.73 244.5 165.75 240.32 164.52 221.41 176.05"/>
        </g>
        <g>
          <path class="st6" d="M240.88,200.24l6.78-9.92-5.81-6.49,8.89-21.03-11.07-3.26-15.82,9.64-5.43-12.31-20.28-7.18-17.08,2.11-24.91,17.9-16.03,23.64.9-4.63-11.41,2.82-12.64,29.49,2.86,5.27c-1.72,1.53-3.69,3.28-5.66,5.04-.53.47-1.06.94-1.58,1.41l.8-6.72-15.69,12.41-7.12,23.2c9.99,28.34,38.25,23.12,38.25,23.12l-5.11-4.99c9.99,3.3,16.33-3.99,16.33-3.99l-3.12-5.43.93-2.79,10.36-3.43s17.97,10.24,42.8-13.98c2.61-2.55,7.47-3.3,12.61-4.08,9.38-1.43,21.05-3.21,26.55-16.87l1.63-4.06c2.6-1.92,5.16-4.38,7.49-7.53l4.78-6.44-13.93-1.49,6.09-9.45h4.63ZM223.86,210.97l1.18,2.78,10.58,1.13c-9.98,13.46-24.6,12.39-24.6,12.39,5.38,2.93,14.9.22,14.9.22-7.49,18.64-28.9,10.36-38.11,19.39-9.21,9.03-13.5,10.53-13.5,10.53l.63-5.92c-5.05,10.46-14.31,9.42-14.31,9.42,3.38-2.19,1.19-6.11,1.19-6.11l-27.59,9.12-2.31,6.92,2.19,3.82c-4.84,3.9-18.04-2.52-18.04-2.52l-2.86,3.77,2.93,2.87c-14.17-1.52-19.89-17.84-19.89-17.84l5.46-19.84,5.79-4.58s-.92,7.7-1.35,8.11c.48-.47,22.14-19.73,22.14-19.73l-4.6-1.08-1.64-3.02,10.86-25.35,2.22-.55-1.31,6.73,6.41-.3,19.24-28.38,23.19-16.67,5.54-.39-12.9,19.63,23.81-20.62,15.89,5.63,5.14,11.65-12.59,21.33,13.85-17.47,18.91-11.53,4.19,1.23-8.02,18.98,5.35,5.97-3.38,4.94h-4.71s-9.89,15.33-9.89,15.33Z"/>
          <polygon class="st6" points="109.78 254.12 116.17 247.36 119.36 246.05 117.15 253.36 116.05 251.25 109.78 254.12"/>
          <polygon class="st6" points="101.77 253.26 100.18 246.7 98.07 254.35 100.06 252.49 101.77 253.26"/>
          <path class="st6" d="M192.39,179.32l-34.99,34.26s-7.91,4.16-16.46,4.23c0,0,5.88,1.91,10.93,2.45l-8.01,15.44,15.88-15.56,11.93-3.17,4.95.53,12.59-24.08.05-6.87,3.13-7.23Z"/>
          <polygon class="st6" points="124.28 215.61 123.29 220.07 139.15 218.01 128.06 223.01 132.54 225.84 128.3 224.9 123.7 223.82 122.06 220.79 124.28 215.61"/>
          <polygon class="st6" points="184.92 209.31 190.2 195.19 193.13 193.87 184.92 209.31"/>
        </g>
        <g>
          <polygon class="st1" points="163.8 216.13 183.3 195.19 175.4 208.19 175.51 211.29 173.78 214.2 171.93 213.51 163.8 216.13"/>
          <polygon class="st8" points="183.3 195.19 168.15 214.73 163.8 216.13 183.3 195.19"/>
        </g>
      </g>
      <path class="st6" d="M341.06,297.27l-.94,5.8c-1.28-.95-2.71-1.73-4.29-2.32l-.25-.09c-3.52-1.27-7.54-1.51-11.98-.74l-5.97,1.05c-4.12.72-7.95,2.21-11.4,4.42-2.88,1.85-5.37,4.11-7.44,6.74-1.75-1.8-3.92-3.17-6.45-4.04-3.4-1.18-7.31-1.39-11.61-.64l-6.31,1.11c-4.08.71-7.88,2.19-11.29,4.38-3.45,2.21-6.33,5.04-8.56,8.39-1.19,1.78-2.16,3.66-2.91,5.63l-.7-2.56c-1.42-5.38-6.47-10.17-14.53-8.76l-7.72,1.35-8.2,15.2c-1.14-4.03-3.71-6.43-5.11-7.49-3.84-2.9-8.78-3.84-14.7-2.8l-27.17,4.76-.92,5.7c-1.37-.92-2.91-1.66-4.59-2.19-3.46-1.08-7.44-1.24-11.84-.47l-58.11,11.29,31.19,4.81-4.31,26.57c-.73,4.53.7,8.72,3.93,11.49,1.26,1.07,3.26,2.3,6.06,2.74l-.47.18.94-.11c.54.07,1.09.11,1.69.11.45,0,4.48-.65,8.42-1.3l109.21-12.84-21.25,21.17,150.5-50.07,6.97-43.02,19.31-15.55-69.22,12.14Z"/>
    </g>
  </g>
  <g id="TEXTS">
    <text class="st10" transform="translate(129.38 384.35) rotate(-9.94) scale(1.07 .94) skewX(-17.08)"><tspan x="0" y="0">MasterDice</tspan></text>
  </g>
</svg>